<?xml version="1.0" standalone="no"?><!DOCTYPE svg PUBLIC "-//W3C//DTD SVG 1.1//EN" "http://www.w3.org/Graphics/SVG/1.1/DTD/svg11.dtd"><svg t="1733215573724" class="icon" viewBox="0 0 1024 1024" version="1.1" xmlns="http://www.w3.org/2000/svg" p-id="4498" data-spm-anchor-id="a313x.search_index.0.i3.1d703a81TyH9LK" width="48" height="48" xmlns:xlink="http://www.w3.org/1999/xlink"><path d="M671.967178 960.648438H127.266705a64.043229 64.043229 0 0 1-64.043229-64.043229V64.043229h703.835089A64.043229 64.043229 0 0 1 831.024942 128.086458l0.794136 191.2587a32.098466 32.098466 0 0 0 64.196933 0L897.015085 128.086458a128.086458 128.086458 0 0 0-128.086458-128.086458H0v895.913542a128.086458 128.086458 0 0 0 128.086458 128.086458h550.97671a31.995997 31.995997 0 0 0-7.09599-63.197859z" fill="#41d1ff" p-id="4499" data-spm-anchor-id="a313x.search_index.0.i0.1d703a81TyH9LK" class=""></path><path d="M1024.461111 542.471768l-45.086433-45.39384-67.091687-67.091687-45.291372-45.291372-0.794136-0.794136L505.65972 746.231706l-0.409876-0.204938-26.949391 134.157757a217.490806 217.490806 0 0 0-9.708954-100.983364 43.959273 43.959273 0 0 0-31.30433-31.68859 58.151252 58.151252 0 0 0-49.1852 14.704325 401.858454 401.858454 0 0 0-30.74075 27.794762c-5.123458 5.123458-11.988893 11.707102-18.393216 17.394141a213.494509 213.494509 0 0 1 3.509569-30.382108 211.265804 211.265804 0 0 0 3.893829-50.184274 96.449103 96.449103 0 0 0-24.490131-58.484277l-0.691667-0.691667-0.691667-0.691667a92.837065 92.837065 0 0 0-79.977184-28.793836c-66.784279 9.094139-119.069172 88.789533-138.461462 122.578741a32.021615 32.021615 0 1 0 55.487054 31.893528c29.203713-50.901559 66.092613-87.483051 91.684287-90.99262a29.101243 29.101243 0 0 1 25.617291 10.246917c10.093213 11.886423 9.196608 25.617292 4.406175 55.179646a146.018563 146.018563 0 0 0 5.123458 87.58552 46.392915 46.392915 0 0 0 33.891677 27.692292 49.85125 49.85125 0 0 0 8.504941 0.794136c26.693218 0 50.286744-23.055563 75.084281-47.187051 3.4071-3.304631 7.685188-7.505866 11.886424-11.502164a113.920096 113.920096 0 0 1-1.204013 55.487054 31.97038 31.97038 0 0 0 55.384585 31.995997l0.307407 0.204939a94.297251 94.297251 0 0 0 7.685188-22.184575l-10.989818 54.283041 197.663022-39.681185v-0.204938l225.662722-225.662722 0.204939 0.204938 45.291371-45.291372-0.204938-0.204938 45.598779-45.598779 0.204939 0.204938 45.291371-45.291372v-0.204938z m-400.526355 309.96923l-89.173792 20.698771 20.288895-85.894779 221.051609-221.051609 67.091687 67.091686-219.258399 219.155931z m264.754709-264.47292l-67.091686-67.091686 45.598779-45.59878 67.091687 67.091687z" fill="#8582ff" p-id="4500" data-spm-anchor-id="a313x.search_index.0.i1.1d703a81TyH9LK" class=""></path><path d="M727.249293 320.241763h-558.456958a32.021615 32.021615 0 1 0 0 64.043229h558.456958a32.021615 32.021615 0 0 0 0-64.043229z m0-129.469792h-558.456958a32.021615 32.021615 0 1 0 0 64.043229h558.456958a32.021615 32.021615 0 0 0 0-64.043229z" fill="#41d1ff" p-id="4501" data-spm-anchor-id="a313x.search_index.0.i2.1d703a81TyH9LK" class=""></path></svg>