<?xml version="1.0" standalone="no"?><!DOCTYPE svg PUBLIC "-//W3C//DTD SVG 1.1//EN" "http://www.w3.org/Graphics/SVG/1.1/DTD/svg11.dtd"><svg t="1733213718281" class="icon" viewBox="0 0 1024 1024" version="1.1" xmlns="http://www.w3.org/2000/svg" p-id="13677" width="48" height="48" xmlns:xlink="http://www.w3.org/1999/xlink"><path d="M179.801 244.078V172.18h299.312l-29.931 71.898h-59.15v75.129H575.32l-41.334-159.953H664.4l40.621 159.953H861.09v72.706H724.263l23.518 91.286 106.185-53.317v109.866l-81.242 40.393 29.219 113.906H844.7l-28.506 64.627H688.631l-31.356-120.368-160.346 79.976V608.415l135.403-67.858-38.483-148.644H390.032v84.016l88.368-20.196v95.326l-88.368 20.195v187.42H227.548l-14.965-61.396h40.621v-96.133l-95.495 21.004v-95.325l95.495-21.004V391.913h-97.632v-72.706h97.632v-75.129h-73.403z m675.589-52.51l-24.229 84.016H722.838v-84.016H855.39z" p-id="13678" fill="#8582ff"></path></svg>