<?xml version="1.0" standalone="no"?><!DOCTYPE svg PUBLIC "-//W3C//DTD SVG 1.1//EN" "http://www.w3.org/Graphics/SVG/1.1/DTD/svg11.dtd"><svg t="1733213594528" class="icon" viewBox="0 0 1024 1024" version="1.1" xmlns="http://www.w3.org/2000/svg" p-id="2905" width="48" height="48" xmlns:xlink="http://www.w3.org/1999/xlink"><path d="M192 64h704a128 128 0 0 1 128 128v704a128 128 0 0 1-128 128H192a128 128 0 0 1-128-128V192a128 128 0 0 1 128-128z m-19.2 183.04V704h69.76V526.08h118.4c109.44 0 164.48-46.72 164.48-140.16 0-92.8-54.4-138.88-163.2-138.88H172.8z m69.76 59.52h113.92c33.92 0 58.88 6.4 74.88 19.2 16 11.52 24.32 32 24.32 60.16 0 28.16-8.32 48.64-23.68 61.44-16 12.8-40.96 19.2-75.52 19.2H242.56v-160z m305.92 66.56l131.2 323.2-57.6 134.4h72.32l179.84-457.6H800L712.96 614.4 622.08 373.12H548.48z" fill="#468CFF" p-id="2906"></path></svg>